<?xml version="1.0" encoding="UTF-8" standalone="no"?>
<!-- Created with Inkscape (http://www.inkscape.org/) -->

<svg
   xmlns:dc="http://purl.org/dc/elements/1.1/"
   xmlns:cc="http://creativecommons.org/ns#"
   xmlns:rdf="http://www.w3.org/1999/02/22-rdf-syntax-ns#"
   xmlns:svg="http://www.w3.org/2000/svg"
   xmlns="http://www.w3.org/2000/svg"
   xmlns:sodipodi="http://sodipodi.sourceforge.net/DTD/sodipodi-0.dtd"
   xmlns:inkscape="http://www.inkscape.org/namespaces/inkscape"
   width="50"
   height="50"
   id="svg34864"
   sodipodi:version="0.32"
   inkscape:version="0.92.2 2405546, 2018-03-11"
   version="1.0"
   sodipodi:docname="mercury.svg">
  <defs
     id="defs34866" />
  <sodipodi:namedview
     id="base"
     pagecolor="#ffffff"
     bordercolor="#666666"
     borderopacity="1.0"
     gridtolerance="10000"
     guidetolerance="10"
     objecttolerance="10"
     inkscape:pageopacity="0.0"
     inkscape:pageshadow="2"
     inkscape:zoom="5.6"
     inkscape:cx="7.612546"
     inkscape:cy="23.612944"
     inkscape:document-units="px"
     inkscape:current-layer="layer1"
     inkscape:window-width="2560"
     inkscape:window-height="1388"
     inkscape:window-x="0"
     inkscape:window-y="0"
     showgrid="false"
     inkscape:window-maximized="1" />
  <metadata
     id="metadata34869">
    <rdf:RDF>
      <cc:Work
         rdf:about="">
        <dc:format>image/svg+xml</dc:format>
        <dc:type
           rdf:resource="http://purl.org/dc/dcmitype/StillImage" />
      </cc:Work>
    </rdf:RDF>
  </metadata>
  <g
     inkscape:groupmode="layer"
     id="layer2"
     inkscape:label="Layer 2" />
  <g
     inkscape:label="Layer 1"
     inkscape:groupmode="layer"
     id="layer1"
     transform="translate(-348.7552,-478.0905)">
    <path
       sodipodi:type="arc"
       style="opacity:1;color:black;fill:none;fill-opacity:1;fill-rule:evenodd;stroke:black;stroke-width:3.125;stroke-linecap:butt;stroke-linejoin:miter;marker:none;marker-start:none;marker-mid:none;marker-end:none;stroke-miterlimit:4;stroke-dasharray:none;stroke-dashoffset:0;stroke-opacity:1;visibility:visible;display:inline;overflow:visible"
       id="path3058"
       sodipodi:cx="100.5"
       sodipodi:cy="36.5"
       sodipodi:rx="11.5"
       sodipodi:ry="11.5"
       d="M 112 36.5 A 11.5 11.5 0 1 1  89,36.5 A 11.5 11.5 0 1 1  112 36.5 z"
       transform="matrix(0.96,0,0,0.96,277.357,466.9525)" />
    <path
       style="fill:none;fill-opacity:0.75;fill-rule:evenodd;stroke:black;stroke-width:3;stroke-linecap:butt;stroke-linejoin:miter;stroke-miterlimit:4;stroke-dasharray:none;stroke-opacity:1"
       d="M 373.83706,512.99267 L 373.83706,524.99267"
       id="path3062" />
    <path
       style="fill:none;fill-opacity:0.75;fill-rule:evenodd;stroke:black;stroke-width:3;stroke-linecap:butt;stroke-linejoin:miter;stroke-miterlimit:4;stroke-dasharray:none;stroke-opacity:1"
       d="M 368.83706,519.99267 L 378.83706,519.99267"
       id="path3937" />
    <path
       style="opacity:1;fill:#ffffff;stroke-width:0.25;stroke-miterlimit:4;stroke-dasharray:none"
       d="m 22.755403,33.060851 c -3.477768,-0.964431 -6.054686,-3.635326 -6.878691,-7.129547 -1.115284,-4.729399 1.84827,-9.711914 6.610834,-11.114553 3.319404,-0.977608 7.246568,0.157059 9.598868,2.773383 4.723395,5.253552 2.182086,13.631686 -4.689504,15.460259 -1.177194,0.313259 -3.530478,0.318561 -4.641507,0.01046 z"
       id="path4630"
       inkscape:connector-curvature="0"
       transform="translate(348.7552,478.0905)" />
    <path
       style="opacity:1;fill:#000000;stroke-width:2.20000005;stroke-miterlimit:4;stroke-dasharray:none"
       id="path4668"
       d="m 361.66953,480.70434 c 0.68074,0.009 1.36158,0.004 2.04236,0.002 0.42354,-0.002 0.84709,-0.003 1.27064,-0.003 0.33837,0.0683 0.67203,0.12608 1.00185,0.22738 0.29655,0.0714 0.60049,0.14981 0.87105,0.29374 0.30204,0.10393 0.53248,0.32444 0.79093,0.50668 0.26171,0.20502 0.51311,0.42979 0.73771,0.67554 0.15107,0.23392 0.34073,0.43866 0.47735,0.68144 0.14578,0.2228 0.27825,0.45834 0.38582,0.70234 0.12293,0.23596 0.25219,0.47011 0.35746,0.71473 0.14505,0.24885 0.29736,0.47459 0.38804,0.75063 0.0977,0.28768 0.22303,0.56355 0.33157,0.84681 0.11986,0.25727 0.26702,0.49786 0.41749,0.73757 0.11498,0.2568 0.30306,0.46734 0.43807,0.71176 0.15378,0.23718 0.3016,0.47724 0.45428,0.71503 0.15439,0.21424 0.34639,0.39439 0.51859,0.5929 0.175,0.20472 0.39964,0.34924 0.60447,0.51962 0.21508,0.17085 0.43506,0.3293 0.67159,0.46993 0.16487,0.15298 0.36823,0.26721 0.59102,0.30593 0.17073,0.1016 0.33477,0.20159 0.47412,0.3443 0.11414,0.0985 0.2713,0.12607 0.41364,0.16594 0,0 -2.20394,1.49721 -2.20394,1.49721 v 0 c -0.17181,-0.0638 -0.34588,-0.1299 -0.4786,-0.26211 -0.12194,-0.0993 -0.25535,-0.19443 -0.4073,-0.24039 -0.22791,-0.0907 -0.43778,-0.21233 -0.62744,-0.36894 -0.23664,-0.15593 -0.46766,-0.31638 -0.68655,-0.4967 -0.2234,-0.17169 -0.4429,-0.34436 -0.6301,-0.55685 -0.18587,-0.20427 -0.37768,-0.40304 -0.53757,-0.62936 -0.15628,-0.24269 -0.30857,-0.48716 -0.46488,-0.72992 -0.1314,-0.23991 -0.31924,-0.44608 -0.42888,-0.69941 -0.15995,-0.25487 -0.31592,-0.51133 -0.44445,-0.78412 -0.10565,-0.28946 -0.23677,-0.56837 -0.33634,-0.86051 -0.0803,-0.26994 -0.24814,-0.47986 -0.37892,-0.72691 -0.1011,-0.24547 -0.23532,-0.47674 -0.35639,-0.71266 -0.10012,-0.23734 -0.23405,-0.4616 -0.37255,-0.67809 -0.12532,-0.22369 -0.3041,-0.41222 -0.44352,-0.62731 -0.21893,-0.22845 -0.45073,-0.44849 -0.70808,-0.63318 -0.24203,-0.17865 -0.47994,-0.35954 -0.76641,-0.46205 -0.27662,-0.10628 -0.55815,-0.1931 -0.84623,-0.26267 -0.31107,-0.0869 -0.6346,-0.1421 -0.95622,-0.16673 -0.42045,-4.5e-4 -0.84089,-10e-4 -1.26133,-0.003 -0.68225,-0.003 -1.36457,-0.007 -2.0468,0.002 0,0 2.14445,-1.55803 2.14445,-1.55803 z"
       inkscape:connector-curvature="0" />
    <path
       inkscape:connector-curvature="0"
       d="m 385.77909,480.39841 c -0.68074,0.009 -1.36158,0.004 -2.04236,0.002 -0.42354,-0.002 -0.84709,-0.003 -1.27064,-0.003 -0.33837,0.0683 -0.67203,0.12608 -1.00185,0.22738 -0.29655,0.0714 -0.60049,0.14981 -0.87105,0.29374 -0.30204,0.10393 -0.53248,0.32444 -0.79093,0.50668 -0.26171,0.20502 -0.51311,0.42979 -0.73771,0.67554 -0.15107,0.23392 -0.34073,0.43866 -0.47735,0.68144 -0.14578,0.2228 -0.27825,0.45834 -0.38582,0.70234 -0.12293,0.23596 -0.25219,0.47011 -0.35746,0.71473 -0.14505,0.24885 -0.29736,0.47459 -0.38804,0.75063 -0.0977,0.28768 -0.22303,0.56355 -0.33157,0.84681 -0.11986,0.25727 -0.26702,0.49786 -0.41749,0.73757 -0.11498,0.2568 -0.30306,0.46734 -0.43807,0.71176 -0.15378,0.23718 -0.3016,0.47724 -0.45428,0.71503 -0.15439,0.21424 -0.34639,0.39439 -0.51859,0.5929 -0.175,0.20472 -0.39964,0.34924 -0.60447,0.51962 -0.21508,0.17085 -0.43506,0.3293 -0.67159,0.46993 -0.16487,0.15298 -0.36823,0.26721 -0.59102,0.30593 -0.17073,0.1016 -0.33477,0.20159 -0.47412,0.3443 -0.11414,0.0985 -0.2713,0.12607 -0.41364,0.16594 0,0 2.20394,1.49721 2.20394,1.49721 v 0 c 0.17181,-0.0638 0.34588,-0.1299 0.4786,-0.26211 0.12194,-0.0993 0.25535,-0.19443 0.4073,-0.24039 0.22791,-0.0907 0.43778,-0.21233 0.62744,-0.36894 0.23664,-0.15593 0.46766,-0.31638 0.68655,-0.4967 0.2234,-0.17169 0.4429,-0.34436 0.6301,-0.55685 0.18587,-0.20427 0.37768,-0.40304 0.53757,-0.62936 0.15628,-0.24269 0.30857,-0.48716 0.46488,-0.72992 0.1314,-0.23991 0.31924,-0.44608 0.42888,-0.69941 0.15995,-0.25487 0.31592,-0.51133 0.44445,-0.78412 0.10565,-0.28946 0.23677,-0.56837 0.33634,-0.86051 0.0803,-0.26994 0.24814,-0.47986 0.37892,-0.72691 0.1011,-0.24547 0.23532,-0.47674 0.35639,-0.71266 0.10012,-0.23734 0.23405,-0.4616 0.37255,-0.67809 0.12532,-0.22369 0.3041,-0.41222 0.44352,-0.62731 0.21893,-0.22845 0.45073,-0.44849 0.70808,-0.63318 0.24203,-0.17865 0.47994,-0.35954 0.76641,-0.46205 0.27662,-0.10628 0.55815,-0.1931 0.84623,-0.26267 0.31107,-0.0869 0.6346,-0.1421 0.95622,-0.16673 0.42045,-4.5e-4 0.84089,-10e-4 1.26133,-0.003 0.68225,-0.003 1.36457,-0.007 2.0468,0.002 0,0 -2.14445,-1.55803 -2.14445,-1.55803 z"
       id="path4672"
       style="opacity:1;fill:#000000;stroke-width:2.20000005;stroke-miterlimit:4;stroke-dasharray:none" />
  </g>
</svg>
