<?xml version="1.0" encoding="UTF-8" standalone="no"?>
<!-- Created with Inkscape (http://www.inkscape.org/) -->

<svg
   xmlns:dc="http://purl.org/dc/elements/1.1/"
   xmlns:cc="http://creativecommons.org/ns#"
   xmlns:rdf="http://www.w3.org/1999/02/22-rdf-syntax-ns#"
   xmlns:svg="http://www.w3.org/2000/svg"
   xmlns="http://www.w3.org/2000/svg"
   xmlns:sodipodi="http://sodipodi.sourceforge.net/DTD/sodipodi-0.dtd"
   xmlns:inkscape="http://www.inkscape.org/namespaces/inkscape"
   width="210mm"
   height="297mm"
   viewBox="0 0 210 297"
   version="1.1"
   id="svg8"
   inkscape:version="0.92.2 2405546, 2018-03-11"
   sodipodi:docname="horsey.svg">
  <defs
     id="defs2" />
  <sodipodi:namedview
     id="base"
     pagecolor="#ffffff"
     bordercolor="#666666"
     borderopacity="1.0"
     inkscape:pageopacity="0.0"
     inkscape:pageshadow="2"
     inkscape:zoom="7.919596"
     inkscape:cx="364.79606"
     inkscape:cy="603.4133"
     inkscape:document-units="mm"
     inkscape:current-layer="layer2"
     showgrid="false"
     inkscape:window-width="1916"
     inkscape:window-height="1031"
     inkscape:window-x="0"
     inkscape:window-y="18"
     inkscape:window-maximized="0"
     inkscape:measure-start="-181.429,522.857"
     inkscape:measure-end="371.429,570" />
  <metadata
     id="metadata5">
    <rdf:RDF>
      <cc:Work
         rdf:about="">
        <dc:format>image/svg+xml</dc:format>
        <dc:type
           rdf:resource="http://purl.org/dc/dcmitype/StillImage" />
        <dc:title />
      </cc:Work>
    </rdf:RDF>
  </metadata>
  <g
     inkscape:groupmode="layer"
     id="layer2"
     inkscape:label="body1"
     style="display:inline">
    <path
       style="display:inline;opacity:1;fill:#563f37;fill-opacity:1;stroke:none;stroke-width:0.04486032;stroke-miterlimit:4;stroke-dasharray:none;stroke-opacity:1"
       d="m 341.37043,653.06986 c -4.68975,-1.07096 -9.66571,-3.35243 -14.08153,-5.03182 -1.72997,-0.65793 -3.81613,-1.14388 -5.49101,-1.91789 -1.51346,-0.69942 -3.1898,-1.04903 -4.39042,-2.15203 -5.87252,-2.93167 -10.901,-5.23564 -10.9429,-5.27426 -0.0751,-0.0692 9.82399,-15.12594 30.69912,-47.42504 0.87525,-1.35424 1.63259,-2.46225 1.68298,-2.46225 0.0504,0 2.52241,1.44403 5.42954,3.1105 l 5.1147,2.93193 7.12864,3.46658 c 3.12741,1.52083 7.42524,2.65827 7.46426,2.69655 0.0841,0.0825 -10.74018,38.72763 -10.93399,39.04122 -0.0731,0.11835 -0.35982,2.01761 -0.63706,4.22057 -0.27723,2.20296 -0.57544,4.45995 -0.66269,5.01553 -0.0872,0.55559 -0.19627,1.35108 -0.24225,1.76777 -0.1652,1.49706 -0.68917,3.57699 -0.68917,3.57699 -3.09569,9.89461 -6.42716,-0.90087 -9.44822,-1.56435 z"
       id="path4649"
       inkscape:connector-curvature="0"
       transform="scale(0.26458333)"
       sodipodi:nodetypes="csscccsscsccccccc" />
    <path
       style="opacity:1;fill:#563f37;fill-opacity:1;stroke:none;stroke-width:0.01586052;stroke-miterlimit:4;stroke-dasharray:none;stroke-opacity:1"
       d="m 410.58891,652.94839 c -0.52767,-2.05023 -1.38344,-5.375 -1.90172,-7.3884 -1.22265,-4.74971 -5.83056,-22.62357 -7.13557,-27.67857 -3.29041,-12.7454 -3.89728,-15.15757 -3.82847,-15.21742 0.083,-0.0722 27.34053,-6.61293 27.55839,-6.61293 0.0732,0 0.25355,0.19084 0.40069,0.4241 2.69328,4.2694 21.03148,33.31806 25.08601,39.73755 3.01818,4.77863 5.45008,8.72596 5.45008,8.72596 0.18456,0.5946 1.12868,2.37884 1.01514,2.73692 -0.47193,1.48842 -4.18895,1.37263 -13.41821,4.07574 -4.71985,1.38237 -11.4284,2.79142 -19.95659,4.31085 -3.23654,0.57664 -6.30261,1.54044 -8.40706,1.84389 -1.63254,0.23541 -2.68638,-0.12771 -2.79218,-0.0966 -0.24217,0.0711 -0.4634,0.12932 -0.49161,0.12932 -0.0282,0 -1.05123,-2.94015 -1.5789,-4.99037 z"
       id="path4754"
       inkscape:connector-curvature="0"
       transform="scale(0.26458333)"
       sodipodi:nodetypes="csccscccsssscsc" />
    <path
       style="display:inline;opacity:1;fill:#c0b47e;fill-opacity:1;stroke-width:0.35714287"
       d="m 372.93946,603.144 c -13.33293,-2.36953 -28.12279,-9.15146 -37.23943,-17.07624 -9.13425,-7.9401 -14.32057,-22.621 -15.29728,-43.30203 l -0.21084,-4.46429 3.44745,-15.71428 c 3.90008,-17.77748 4.59944,-21.24828 4.33482,-21.5129 -0.10228,-0.10228 -2.32157,-0.42171 -4.93177,-0.70983 l -4.74581,-0.52388 -2.09546,1.26813 c -4.36399,2.641 -10.39159,4.52595 -14.40734,4.50546 -4.85195,-0.0248 -9.18291,-2.29784 -12.31156,-6.46169 -3.38603,-4.50637 -4.54809,-8.54675 -3.87729,-13.48096 0.77805,-5.72315 4.06864,-10.13719 9.50712,-12.753 l 2.64882,-1.27403 v -3.30432 c 0,-2.03724 0.21073,-3.92276 0.54954,-4.91711 0.69321,-2.03448 6.66229,-10.03051 9.97463,-13.36176 5.7502,-5.78305 12.55359,-8.92793 21.22133,-9.80961 6.09583,-0.62007 10.464,0.1659 15.57593,2.8026 4.03931,2.08345 6.72183,5.12117 12.4591,14.10886 l 4.95911,7.76865 1.15234,5.07769 c 1.1218,4.94311 1.18834,5.7214 2.51034,29.36341 0.74691,13.35714 1.37898,24.31973 1.40462,24.36131 0.0256,0.0416 3.65546,0.24598 8.06627,0.45424 21.00631,0.99183 36.35969,2.64118 45.01894,4.83618 5.72298,1.4507 8.17737,2.99015 11.21953,7.03711 4.39688,5.84915 5.40529,10.14544 6.10415,26.0066 0.27441,6.2277 -0.0426,9.2408 -1.63286,15.51885 -1.9496,7.69676 -4.41682,13.05872 -7.38845,16.05713 -4.77014,4.81314 -17.14633,8.1021 -36.31189,9.64982 -8.71887,0.7041 -15.17428,0.65492 -19.70406,-0.15011 z"
       id="path93"
       inkscape:connector-curvature="0"
       transform="scale(0.26458333)" />
  </g>
  <g
     inkscape:groupmode="layer"
     id="layer3"
     inkscape:label="ear / hair"
     style="display:inline;opacity:1">
    <path
       style="display:inline;fill:#4d3229;fill-opacity:0.98823529;stroke-width:0.17857143"
       d="m 342.29428,440.21546 c 0.003,-0.0842 2.35712,-3.84088 5.23078,-8.34825 l 5.22483,-8.19523 2.28038,-1.31095 c 1.91954,-1.1035 2.26012,-1.2478 2.15235,-0.91192 -0.0704,0.21947 -0.62609,2.20707 -1.23484,4.41689 l -1.1068,4.01786 -2.30311,2.65992 -2.30311,2.65991 -3.71779,2.48439 c -3.78609,2.53003 -4.23319,2.79763 -4.22269,2.52738 z"
       id="path62"
       inkscape:connector-curvature="0"
       transform="scale(0.26458333)" />
    <path
       style="display:inline;fill:#808000;fill-opacity:0.98823529;stroke-width:0.17857143"
       d="m 379.51654,523.12909 c -1.12947,-0.0696 -3.96475,-0.1891 -6.30063,-0.26561 -2.67984,-0.0878 -4.29067,-0.20969 -4.36526,-0.33039 -0.065,-0.1052 -0.73922,-10.96147 -1.49822,-24.12505 l -1.38001,-23.93378 -1.08561,-4.82143 c -0.59709,-2.65179 -1.16088,-4.99536 -1.25286,-5.20793 -0.092,-0.21258 -2.54942,-4.06972 -5.46096,-8.57143 -4.38089,-6.77358 -5.52973,-8.42535 -6.66257,-9.57925 -5.28382,-5.38206 -12.37355,-7.95162 -20.51965,-7.43703 -9.40399,0.59405 -16.92911,3.77191 -23.09131,9.75145 -0.9461,0.91805 -1.76716,1.66919 -1.82458,1.66919 -0.22381,0 -1.80609,-2.75555 -2.33426,-4.06514 -0.52402,-1.29929 -0.55728,-1.51989 -0.56023,-3.71618 l -0.003,-2.33489 0.74924,-1.50439 c 0.41208,-0.82742 1.09692,-1.89676 1.52187,-2.37631 l 0.77262,-0.8719 5.17457,-0.50499 c 2.84601,-0.27775 5.35621,-0.50816 5.57822,-0.51202 0.27565,-0.005 1.54988,-1.10234 4.01786,-3.46071 l 3.61419,-3.45367 2.76786,-0.99204 c 3.49436,-1.25243 5.1512,-1.74347 5.88274,-1.74347 0.317,0 1.63423,0.16981 2.92717,0.37736 l 2.35081,0.37736 9.46428,5.35014 9.46429,5.35013 0.85832,1.23679 c 0.76464,1.10181 0.92189,1.23679 1.4408,1.23679 0.90964,0 2.30198,0.4796 3.12667,1.07701 2.60412,1.88641 3.26325,6.47362 1.80814,12.5837 -0.30407,1.27679 -0.59287,2.45538 -0.64179,2.6191 -0.0649,0.21727 0.33583,0.58861 1.48367,1.37478 5.38637,3.68919 8.25819,7.79607 8.25819,11.80969 0,2.29025 -1.09966,4.95861 -2.80066,6.7959 l -0.94265,1.01818 2.18679,0.0773 c 1.70897,0.0604 2.36716,0.15828 3.01223,0.44784 1.22467,0.54974 2.18084,1.50916 2.76531,2.77473 0.49919,1.08089 0.51641,1.21046 0.51641,3.88603 0,2.98743 -0.18715,4.13154 -1.19293,7.29298 -0.29185,0.91739 -0.50445,1.6912 -0.47243,1.71959 0.032,0.0284 0.49299,0.27007 1.02439,0.53706 1.90473,0.95702 3.2778,2.86851 3.87488,5.39434 0.37388,1.58164 0.23898,5.23514 -0.26912,7.28818 -0.19445,0.78571 -0.87571,2.55357 -1.51391,3.92857 l -1.16037,2.5 0.66803,0.20176 c 2.02865,0.61272 3.218,1.768 3.80304,3.69411 0.31126,1.02477 0.35774,1.53744 0.28365,3.12913 -0.0487,1.04696 -0.2259,2.48616 -0.39373,3.19821 l -0.30513,1.29464 -0.65533,-0.029 c -0.36043,-0.0159 -1.57944,-0.0859 -2.7089,-0.15548 z"
       id="path81"
       inkscape:connector-curvature="0"
       transform="scale(0.26458333)" />
    <path
       style="display:inline;fill:#c0b47e;fill-opacity:1;stroke-width:0.04464286"
       d="m 310.15804,446.43838 c -0.0243,-0.0925 -1.31944,-5.0097 -2.87805,-10.92711 l -2.83383,-10.75893 0.088,-6.60553 c 0.0484,-3.63304 0.0933,-6.61075 0.0996,-6.61713 0.006,-0.006 0.36202,0.0588 0.79031,0.14479 6.78175,1.36204 12.92046,5.62576 18.12188,12.5868 2.58068,3.4537 4.87287,7.52141 6.72941,11.94196 0.33798,0.80477 1.04147,2.64636 1.01935,2.66848 -0.008,0.008 -0.34378,0.0346 -0.74549,0.0584 -7.51834,0.44538 -14.39043,2.98966 -20.003,7.40579 l -0.34405,0.2707 z"
       id="path91"
       inkscape:connector-curvature="0"
       transform="scale(0.26458333)" />
    <path
       style="display:inline;opacity:1;fill:#563f37;fill-opacity:1;stroke:none;stroke-width:0.1776378;stroke-miterlimit:4;stroke-dasharray:none;stroke-opacity:1"
       d="m 382.19512,524.54371 c -0.24553,-0.0232 -3.15432,-0.0105 -6.6822,-0.15952 -3.52788,-0.14904 -7.88603,-0.21464 -7.88976,-0.73626 -0.003,-0.48043 -0.45751,-7.28546 -1.21696,-19.81127 -0.32775,-5.40555 -0.46152,-11.86381 -1.14111,-19.09454 l -0.93147,-9.91072 -0.71796,-4.82143 -1.11513,-5.0782 -2.17627,-3.33698 c 0,0 -7.4332,-11.59545 -8.39696,-12.78878 -4.81466,-5.96148 -12.21345,-9.44146 -21.01282,-8.70518 -6.84814,0.57301 -12.49046,2.38158 -17.32143,5.55213 -1.97154,1.29391 -2.83858,1.98447 -5.22449,4.1611 -1.42428,1.29936 -2.29426,0.28795 -2.50403,0.11385 -0.14114,-0.11713 -0.76333,-1.2169 -1.38266,-2.44392 l -1.12605,-2.23095 -0.0608,-2.54995 c -0.0607,-2.54315 -0.0594,-2.55276 0.48171,-3.60368 0.72663,-1.41132 1.25121,-2.2227 1.93104,-2.98682 l 0.56623,-0.63642 5.43763,-0.51461 c 4.91253,-0.4649 5.48727,-0.55305 5.95164,-0.91282 0.28269,-0.21903 1.9877,-1.77985 3.78889,-3.4685 l 3.2749,-3.07027 2.55125,-0.90493 c 5.32765,-1.88974 5.53503,-1.92219 9.00318,-1.40889 l 2.07434,0.30701 9.51125,5.36701 9.51125,5.36702 0.86855,1.19041 c 0.78694,1.07855 0.94194,1.20175 1.64947,1.31107 1.61524,0.24958 2.52993,0.6756 3.47095,1.61662 2.2909,2.2909 2.6075,6.63723 0.95911,13.16675 -0.19012,0.75307 -0.29728,1.49529 -0.23815,1.64938 0.0591,0.15409 0.92299,0.87523 1.91968,1.60254 3.15548,2.3026 4.77807,3.97195 6.26962,6.4503 2.23418,3.7123 1.71353,8.14771 -1.36929,11.66503 l -0.88833,1.01354 0.95366,0.11627 c 0.52451,0.064 1.40113,0.12421 1.94804,0.13393 2.21013,0.0392 3.86012,1.01509 4.9045,2.90062 0.5056,0.91283 0.53247,1.07128 0.59072,3.48402 0.0714,2.95621 -0.0985,4.23622 -0.95193,7.17295 -0.34482,1.18656 -0.62695,2.24021 -0.62695,2.34144 0,0.10122 0.41228,0.39296 0.91619,0.64831 1.86855,0.94687 3.4417,3.11436 3.91595,5.39541 0.13736,0.66069 0.17992,1.96717 0.12052,3.69991 -0.10645,3.10513 -0.29768,3.85125 -1.93664,7.55585 -0.57846,1.30751 -1.05174,2.40165 -1.05174,2.43143 0,0.0298 0.48978,0.23273 1.08839,0.451 1.47203,0.53672 2.65908,1.70158 3.19286,3.13315 0.36653,0.98303 0.3911,1.27768 0.29779,3.57142 -0.0559,1.375 -0.46333,4.57587 -0.58968,5.06694 -0.20404,0.79297 -0.19997,0.57567 -0.5965,0.53823 z"
       id="path83"
       inkscape:connector-curvature="0"
       sodipodi:nodetypes="csssscccscsccccccccccccccscccccscccsccccccssccccsccccc"
       transform="scale(0.26458333)" />
    <path
       style="display:inline;opacity:1;fill:#c9bf7f;fill-opacity:1;stroke-width:0.04464286"
       d="m 348.83678,443.9666 c -0.52542,-0.40684 -1.92732,-1.34119 -2.52702,-1.68423 -3.72939,-2.13329 -7.66836,-3.25732 -12.09351,-3.45104 -0.62612,-0.0274 -1.1444,-0.055 -1.15173,-0.0614 -0.019,-0.0164 7.93454,-12.52857 8.02171,-12.61948 0.0396,-0.0413 4.5759,-5.10827 9.92636,-8.32771 7.18486,-4.32321 9.61139,-3.43923 9.63837,-3.39634 0.0201,0.0319 0.14572,0.38953 0.27918,0.79467 1.62104,4.92082 1.3174,10.18813 -0.88655,15.37946 -0.77471,1.8248 -2.08694,4.09248 -3.16458,5.46875 -0.28654,0.36595 -7.53927,8.17778 -7.61328,8.20019 -0.0149,0.005 -0.20797,-0.13178 -0.42895,-0.30289 z m -5.83731,-3.95406 c 0.43048,-0.25688 3.42338,-2.23111 5.9056,-3.89555 l 1.36028,-0.91214 1.83036,-2.11555 c 1.0067,-1.16355 2.03958,-2.35712 2.2953,-2.65238 l 0.46494,-0.53683 0.32269,-1.16763 c 1.05877,-3.83101 1.69164,-6.10983 1.84923,-6.65862 0.21733,-0.75686 0.21898,-0.78132 0.0527,-0.78132 -0.17829,0 -0.75841,0.30522 -2.68354,1.41193 l -1.6763,0.96367 -3.21428,5.04773 c -5.89835,9.26279 -7.20983,11.35913 -7.20983,11.52457 0,0.13061 0.22357,0.0581 0.70287,-0.22788 z"
       id="path89"
       inkscape:connector-curvature="0"
       sodipodi:nodetypes="ccccccccsccccccccscccscccscc"
       transform="scale(0.26458333)" />
    <path
       style="opacity:1;fill:#563f37;fill-opacity:1;stroke:none;stroke-width:0.02243016;stroke-miterlimit:4;stroke-dasharray:none;stroke-opacity:1"
       d="m 450.0466,594.76236 c -2.64742,-0.34621 -4.84378,-1.49063 -6.3246,-3.29545 -1.17338,-1.43012 -2.03562,-3.60806 -2.39249,-6.04317 -0.31732,-2.16526 -0.1997,-5.55184 0.2697,-7.76555 0.43401,-2.0468 0.49125,-4.84357 0.13697,-6.69226 -0.32329,-1.68699 -1.03137,-3.86638 -1.75243,-5.39374 -0.63339,-1.34166 -0.64393,-1.35484 -1.24229,-1.55358 l -0.60348,-0.20044 -0.0698,-0.90867 c -0.0384,-0.49977 -0.10219,-1.70417 -0.14178,-2.67644 -0.33461,-8.21855 -1.08975,-13.95046 -2.29372,-17.41038 -1.12193,-3.22416 -3.15066,-6.43683 -5.76738,-9.13314 l -1.1291,-1.16345 0.48638,-0.54119 c 2.54161,-2.82804 6.86329,-4.7308 12.67965,-5.58262 0.72725,-0.10651 2.43188,-0.25943 3.78807,-0.33982 4.03098,-0.23895 5.75542,0.0243 8.46075,1.29166 1.24966,0.58542 1.71411,0.87192 4.15164,2.561 2.55788,1.77246 3.03754,2.243 3.85577,3.7824 1.47295,2.77121 2.19384,5.20664 2.31239,7.81208 0.13284,2.9197 -0.49718,5.29327 -2.00388,7.54958 -0.41648,0.62367 -0.48151,0.79743 -0.35535,0.94943 0.11187,0.1348 0.11668,0.23151 0.0175,0.35105 -0.1054,0.127 0.15496,0.45407 1.13078,1.42052 4.00891,3.97043 6.25769,7.54151 6.8113,10.81637 0.16361,0.96789 0.0302,1.82846 -0.65275,4.21091 -1.57685,5.50065 -4.24666,9.27218 -7.032,9.93382 -0.49939,0.11863 -0.6564,0.21201 -0.6564,0.3904 0,0.13044 -0.11522,0.26461 -0.25968,0.30239 -0.14282,0.0373 -0.23556,0.13146 -0.20609,0.20915 0.30886,0.81404 1.02155,3.60929 1.22236,4.79417 0.31374,1.85132 0.33617,4.23855 0.0527,5.61086 -0.63398,3.0693 -2.46966,5.16544 -5.37884,6.14202 -1.68674,0.56622 -5.07508,0.8387 -7.11388,0.57209 z"
       id="path4644"
       inkscape:connector-curvature="0"
       transform="scale(0.26458333)" />
  </g>
  <path
     style="display:inline;opacity:1;fill:#d40000;fill-opacity:1;stroke:none;stroke-width:0.03172104;stroke-miterlimit:4;stroke-dasharray:none;stroke-opacity:1"
     d="m 387.81418,685.65322 c -2.28998,-0.0675 -8.17962,-0.39177 -10.80357,-0.59487 -1.22768,-0.095 -3.39732,-0.25708 -4.82143,-0.36012 -9.65861,-0.69887 -21.95044,-2.25866 -31.05242,-3.94046 -21.23376,-3.9234 -36.46078,-9.48517 -44.47273,-16.24397 -1.10479,-0.93198 -1.58632,-1.20372 -2.85714,-1.61235 -2.96729,-0.9541 -4.29078,-1.14577 -7.86771,-1.13943 -3.91391,0.007 -5.23526,0.28103 -8.1404,1.68856 l -1.80111,0.87264 -2.66317,-0.35124 c -3.08643,-0.40705 -4.8584,-0.85058 -6.28803,-1.57388 -3.06771,-1.55207 -5.23939,-4.99627 -7.09003,-11.24455 -0.73623,-2.48573 -0.79848,-3.88828 -0.28335,-6.38435 1.57628,-7.6378 7.65138,-13.12045 17.30232,-15.61498 l 2.01837,-0.5217 2.98163,0.81745 c 10.21784,2.80135 21.93713,7.51391 34.45318,13.85431 6.21579,3.14881 8.19902,4.02139 11.298,4.97092 1.03032,0.3157 6.57824,2.04772 12.32871,3.84894 11.11121,3.48038 13.18541,4.08363 16.86603,4.90527 15.62626,3.4883 33.77495,3.74152 56.25,0.78485 5.84585,-0.76904 6.67908,-0.93384 18.57143,-3.67313 15.86703,-3.65481 30.5813,-7.60713 37.58317,-10.09502 3.35204,-1.19103 4.22732,-1.55414 7.032,-2.91719 3.34216,-1.62426 4.41213,-1.87276 8.0634,-1.87276 2.62137,0 3.23069,0.0555 4.46428,0.40657 1.93722,0.55132 5.0865,2.14576 6.60714,3.34509 0.6875,0.54223 1.8125,1.41535 2.5,1.94026 1.75033,1.33638 2.69786,2.42717 3.40872,3.92405 1.78043,3.74907 1.67461,9.03106 -0.31513,15.72873 -0.63646,2.14244 -1.47132,3.41122 -3.43235,5.2164 -2.18091,2.00759 -4.79379,3.35375 -7.60102,3.91608 -3.042,0.60935 -7.35054,0.1042 -10.82336,-1.26897 -1.63886,-0.648 -4.33987,-1.99625 -5.83794,-2.91406 l -1.20824,-0.74025 -2.31535,1.16023 c -7.50574,3.76113 -17.75461,7.38265 -28.5334,10.08252 -16.76706,4.1998 -35.28651,6.13769 -53.5205,5.60041 z"
     id="path4771"
     inkscape:connector-curvature="0"
     transform="scale(0.26458333)" />
  <path
     style="display:inline;opacity:1;fill:#d40000;fill-opacity:1;stroke:none;stroke-width:0.01121508;stroke-miterlimit:4;stroke-dasharray:none;stroke-opacity:1"
     d="m 390.04726,563.87946 -16.62319,-0.68663 -4.52688,-2.88225 c -2.48978,-1.58524 -4.53072,-2.88518 -4.53542,-2.88875 -0.005,-0.004 -0.27257,-4.0979 -0.59527,-9.0985 l -0.58673,-9.092 2.60634,-7.57552 c 1.43349,-4.16653 2.6105,-7.57794 2.61558,-7.58091 0.005,-0.003 2.9071,-0.12733 6.44895,-0.27638 l 6.43972,-0.27099 6.34503,0.92191 6.34502,0.92192 8.49159,0.60507 c 4.67038,0.33278 8.722,0.62155 9.0036,0.64169 l 0.51201,0.0366 0.60197,1.26972 c 0.48715,1.02754 1.09587,2.60288 3.19137,8.25917 l 2.58941,6.98945 -0.0652,5.40593 -0.0652,5.40592 -1.69958,2.97789 c -0.93477,1.63783 -1.74804,3.02389 -1.80727,3.08013 -0.0592,0.0562 -1.80955,1.10033 -3.8896,2.3202 -2.91126,1.70734 -3.82692,2.21621 -3.97747,2.21043 -0.10757,-0.004 -7.67601,-0.31649 -16.81876,-0.69413 z"
     id="path4787"
     inkscape:connector-curvature="0"
     transform="scale(0.26458333)" />
  <g
     inkscape:groupmode="layer"
     id="layer5"
     inkscape:label="rocker"
     style="display:inline" />
</svg>
